<?xml version="1.0" encoding="UTF-8" standalone="no"?>
<!-- Created with Inkscape (http://www.inkscape.org/) -->

<svg
   xmlns:dc="http://purl.org/dc/elements/1.1/"
   xmlns:cc="http://creativecommons.org/ns#"
   xmlns:rdf="http://www.w3.org/1999/02/22-rdf-syntax-ns#"
   xmlns:svg="http://www.w3.org/2000/svg"
   xmlns="http://www.w3.org/2000/svg"
   xmlns:sodipodi="http://sodipodi.sourceforge.net/DTD/sodipodi-0.dtd"
   xmlns:inkscape="http://www.inkscape.org/namespaces/inkscape"
   width="2in"
   height="2in"
   viewBox="0 0 50.800001 50.800001"
   version="1.1"
   id="svg3701"
   inkscape:version="0.92.3 (2405546, 2018-03-11)"
   sodipodi:docname="BG Symbol.svg">
  <defs
     id="defs3695">
    <marker
       inkscape:stockid="Arrow1Lstart"
       orient="auto"
       refY="0"
       refX="0"
       id="Arrow1Lstart"
       style="overflow:visible"
       inkscape:isstock="true">
      <path
         id="path5856"
         d="M 0,0 5,-5 -12.5,0 5,5 Z"
         style="fill:#ffffff;fill-opacity:1;fill-rule:evenodd;stroke:none;stroke-width:1.00000003pt;stroke-opacity:1"
         transform="matrix(0.8,0,0,0.8,10,0)"
         inkscape:connector-curvature="0" />
    </marker>
  </defs>
  <sodipodi:namedview
     id="base"
     pagecolor="#ffffff"
     bordercolor="#666666"
     borderopacity="1.0"
     inkscape:pageopacity="0.0"
     inkscape:pageshadow="2"
     inkscape:zoom="0.5"
     inkscape:cx="-134.28571"
     inkscape:cy="560"
     inkscape:document-units="in"
     inkscape:current-layer="g6349"
     showgrid="false"
     inkscape:snap-page="true"
     units="in"
     inkscape:window-width="1920"
     inkscape:window-height="1029"
     inkscape:window-x="0"
     inkscape:window-y="0"
     inkscape:window-maximized="1" />
  <metadata
     id="metadata3698">
    <rdf:RDF>
      <cc:Work
         rdf:about="">
        <dc:format>image/svg+xml</dc:format>
        <dc:type
           rdf:resource="http://purl.org/dc/dcmitype/StillImage" />
        <dc:title></dc:title>
      </cc:Work>
    </rdf:RDF>
  </metadata>
  <g
     inkscape:label="Layer 1"
     inkscape:groupmode="layer"
     id="layer1"
     transform="translate(0,-246.19998)">
    <g
       transform="matrix(25.4,0,0,25.4,4.2333263,-392.92758)"
       id="g6349"
       inkscape:transform-center-x="3.1750001"
       inkscape:transform-center-y="-0.52916668">
      <rect
         y="25.600002"
         x="0.50000018"
         height="0.75000024"
         width="0.75000024"
         id="rect6340"
         style="opacity:1;fill:#ffffff;fill-opacity:1;stroke:none;stroke-width:0.05000002;stroke-miterlimit:4;stroke-dasharray:none;stroke-opacity:1" />
      <g
         id="g908"
         transform="matrix(0.04279367,0,0,0.04279442,-16.239752,20.137466)">
        <g
           transform="translate(282.04583,64.001792)"
           id="g4927">
          <path
             style="opacity:1;fill:#ffffff;fill-opacity:1;stroke-width:0.09128022"
             inkscape:connector-curvature="0"
             d="M 93.549105,53.420921 H 140.28498 V 100.15599 H 93.549105 Z"
             id="path4750" />
          <path
             id="path4752"
             d="m 103.06512,78.426871 c -4.697868,1.522267 -7.730406,3.82899 -7.730406,6.386822 0,4.579124 9.567436,8.315191 21.376916,8.315008 11.80948,-1.82e-4 21.37692,-3.735884 21.37692,-8.315008 0,-2.55765 -3.03254,-4.864555 -7.73041,-6.386822 2.47801,1.17933 3.9993,2.669011 3.9993,4.307476 0,3.780155 -7.89636,6.828615 -17.64581,6.828615 -9.74927,1.82e-4 -17.645805,-3.04846 -17.645805,-6.828615 0,-1.638465 1.521285,-3.128419 3.999295,-4.307476 z m 6.28981,1.260934 c -2.57869,0.826353 -4.26465,2.019831 -4.26465,3.417228 0,2.486452 5.20895,4.529833 11.62135,4.529833 6.41231,0 11.62126,-2.043381 11.62126,-4.529742 0,-1.397305 -1.68578,-2.590784 -4.26465,-3.417136 1.36374,0.642242 2.23931,1.405703 2.23931,2.302067 0,2.052418 -4.30226,3.713795 -9.59592,3.713795 -5.29366,0 -9.59591,-1.661286 -9.59591,-3.713978 0,-0.896181 0.87556,-1.659642 2.23912,-2.301884 z"
             inkscape:connector-curvature="0"
             style="opacity:1;fill:#000000;fill-opacity:1;stroke-width:0.09128022"
             sodipodi:nodetypes="cssscscsccssscssscc" />
          <g
             class=""
             id="g4895"
             transform="matrix(0.03603554,0,0,0.04344113,107.69195,61.244349)">
            <path
               style="opacity:1;fill:#000000;fill-opacity:1"
               inkscape:connector-curvature="0"
               d="m 406.043,316 c 24.11,96.443 -50.59,180 -150,180 -99.41,0 -174.405,-82.38 -150,-180 15,-60 90,-150 150,-300 60,150 135,240 150,300 z"
               id="path4893" />
          </g>
        </g>
      </g>
    </g>
  </g>
</svg>
