<?xml version="1.0" encoding="UTF-8" standalone="no"?>
<!-- Created with Inkscape (http://www.inkscape.org/) -->

<svg
   xmlns:dc="http://purl.org/dc/elements/1.1/"
   xmlns:cc="http://creativecommons.org/ns#"
   xmlns:rdf="http://www.w3.org/1999/02/22-rdf-syntax-ns#"
   xmlns:svg="http://www.w3.org/2000/svg"
   xmlns="http://www.w3.org/2000/svg"
   xmlns:sodipodi="http://sodipodi.sourceforge.net/DTD/sodipodi-0.dtd"
   xmlns:inkscape="http://www.inkscape.org/namespaces/inkscape"
   width="2in"
   height="2in"
   viewBox="0 0 50.800001 50.800001"
   version="1.1"
   id="svg3701"
   inkscape:version="0.92.3 (2405546, 2018-03-11)"
   sodipodi:docname="Hark Symbol.svg">
  <defs
     id="defs3695">
    <marker
       inkscape:stockid="Arrow1Lstart"
       orient="auto"
       refY="0"
       refX="0"
       id="Arrow1Lstart"
       style="overflow:visible"
       inkscape:isstock="true">
      <path
         id="path5856"
         d="M 0,0 5,-5 -12.5,0 5,5 Z"
         style="fill:#ffffff;fill-opacity:1;fill-rule:evenodd;stroke:none;stroke-width:1.00000003pt;stroke-opacity:1"
         transform="matrix(0.8,0,0,0.8,10,0)"
         inkscape:connector-curvature="0" />
    </marker>
  </defs>
  <sodipodi:namedview
     id="base"
     pagecolor="#ffffff"
     bordercolor="#666666"
     borderopacity="1.0"
     inkscape:pageopacity="0.0"
     inkscape:pageshadow="2"
     inkscape:zoom="0.5"
     inkscape:cx="-134.28571"
     inkscape:cy="560"
     inkscape:document-units="in"
     inkscape:current-layer="layer1"
     showgrid="false"
     inkscape:snap-page="true"
     units="in"
     inkscape:window-width="1920"
     inkscape:window-height="1029"
     inkscape:window-x="0"
     inkscape:window-y="0"
     inkscape:window-maximized="1" />
  <metadata
     id="metadata3698">
    <rdf:RDF>
      <cc:Work
         rdf:about="">
        <dc:format>image/svg+xml</dc:format>
        <dc:type
           rdf:resource="http://purl.org/dc/dcmitype/StillImage" />
        <dc:title></dc:title>
      </cc:Work>
    </rdf:RDF>
  </metadata>
  <g
     inkscape:label="Layer 1"
     inkscape:groupmode="layer"
     id="layer1"
     transform="translate(0,-246.19998)">
    <g
       transform="matrix(1.1577846,0,0,1.132215,-359.6291,-33.125995)"
       id="g6522">
      <g
         id="g2126">
        <rect
           y="244.84026"
           x="307.75934"
           height="46.735088"
           width="46.735874"
           id="rect2113"
           style="opacity:1;fill:#ffffff;fill-opacity:1;stroke:none;stroke-width:3.11569881;stroke-miterlimit:4;stroke-dasharray:none;stroke-opacity:1" />
        <g
           id="g5372"
           transform="matrix(0.8,0,0,0.8,237.59369,206.77705)">
          <g
             id="g5363">
            <g
               id="g5355">
              <g
                 id="g5348">
                <rect
                   style="opacity:1;fill:#ffffff;fill-opacity:1;stroke:#ffffff;stroke-width:1.00487554;stroke-miterlimit:4;stroke-dasharray:none;stroke-opacity:1"
                   id="rect5306"
                   width="45.731003"
                   height="45.730194"
                   x="94.051537"
                   y="53.923359" />
                <rect
                   style="opacity:1;fill:#ffffff;fill-opacity:1;stroke:#ffffff;stroke-width:1.28285635;stroke-miterlimit:4;stroke-dasharray:none;stroke-opacity:1"
                   id="rect5302"
                   width="3.6673894"
                   height="45.452213"
                   x="94.190536"
                   y="54.062347" />
                <rect
                   style="opacity:1;fill:#ffffff;fill-opacity:1;stroke:#ffffff;stroke-width:0.80762911;stroke-miterlimit:4;stroke-dasharray:none;stroke-opacity:1"
                   id="rect5304"
                   width="43.69532"
                   height="3.6214278"
                   x="93.952919"
                   y="96.130745" />
                <path
                   id="path5281"
                   d="m 134.27613,91.813187 c -0.33063,-1.694485 -0.30664,-3.371288 0.13759,-5.048681 0.75434,-2.776944 0.2277,-5.408009 0.092,-8.015987 0.15892,-3.134828 0.94394,-5.562599 -0.0194,-8.410275 -1.0452,0.291876 -2.39733,0.869981 -3.05538,-0.160347 -0.64407,-1.630289 0.8034,-2.110884 1.94105,-2.688355 -0.28786,-1.208445 -1.66427,-3.307128 -2.50118,-3.79896 -0.92783,0.869596 -2.07394,1.882768 -3.07317,0.94414 -1.23103,-2.027363 1.77318,-2.659111 0.37613,-3.719339 -1.25523,-0.957647 -2.55354,-1.652685 -3.83925,-2.265206 -0.67897,1.38923 -1.61598,3.270925 -2.81471,2.8849 -1.47515,-0.91941 -0.49199,-2.553302 -0.0505,-3.80344 -1.17343,-0.646694 -4.12508,-1.083594 -5.16538,-0.767648 -0.01,0.958302 0.009,2.225884 -0.75567,2.681273 -2.16546,0.537066 -2.13558,-1.188645 -2.21027,-2.548384 -1.45909,0.03879 -3.91429,0.929708 -4.65182,1.687418 0.62795,1.178352 1.27968,2.897175 -0.15689,3.428306 -1.50144,0.238018 -1.87683,-0.98178 -2.43671,-1.955044 -1.32438,1.008631 -2.47782,2.332572 -3.4415,3.513006 -0.39572,0.485228 -0.32932,0.638276 0.19743,1.020189 0.86997,0.557777 1.57604,1.524435 1.04346,2.401125 -1.17238,1.034815 -2.13162,0.264468 -3.13683,-0.186144 -0.780427,1.5571 -1.206107,3.114856 -1.415114,4.788655 1.082434,0.194029 2.237084,0.274625 2.185604,1.631755 -0.0565,1.345691 -1.15554,1.401624 -2.160134,1.404941 -0.0917,0.891285 0.198617,2.338756 0.697074,3.606814 0.54259,1.436129 1.9335,0.0068 2.67528,1.313326 0.42355,1.027217 -0.17064,1.588907 -0.7289,2.240544 0.82155,1.028915 1.6281,1.966148 2.59618,2.760373 3.03078,-0.473694 3.08977,1.854707 3.79716,2.169991 2.29845,0.680799 4.73644,1.272127 6.83098,0.545517 -2.87427,-1.125837 -5.55877,-2.82831 -7.17277,-4.901805 -1.72257,-2.258879 -2.68686,-4.786933 -2.42118,-7.668291 0.29774,-3.275735 1.93671,-5.812776 4.5058,-7.770676 3.64068,-2.782644 8.43185,-2.70801 11.81717,-0.344952 2.59061,1.808234 5.42542,4.504354 7.16564,7.019895 0.42523,0.615816 0.22251,1.411825 -0.3237,1.825117 -0.61769,0.467963 -1.33904,0.405483 -1.91802,-0.169001 -1.77627,-1.752515 -3.50132,-4.265739 -5.92905,-4.51555 -0.89044,-0.08362 -1.83663,0.640804 -2.1056,1.543022 0.0606,2.604337 4.3769,2.081538 4.75774,3.808974 0.0814,0.619719 -0.14765,1.094951 -0.66574,1.458063 -3.50358,2.705307 -3.31754,-1.956486 -7.04982,-1.404051 1.72079,2.64133 2.4249,8.603453 3.85213,8.165554 2.90525,-0.523227 2.4171,3.579476 0.85047,4.999348 1.82003,1.590112 -1.53098,0.301602 6.94228,2.176543 0.72627,0.673597 4.26158,4.542434 5.21141,4.447477 2.47131,-0.625124 1.8982,-2.424298 1.52608,-4.32413 z m -2.45688,-7.032955 c -0.98329,0.312878 -2.03062,-0.233397 -2.3435,-1.216689 -0.17657,-0.850073 -0.29711,-0.586786 0.22631,-0.831056 0.98307,0.08401 1.58484,0.615244 2.11722,2.047745 z"
                   inkscape:connector-curvature="0"
                   style="opacity:1;fill:#000000;fill-opacity:1;stroke-width:0.15887219"
                   sodipodi:nodetypes="cccccccccccccccccccccccccccccccccccccccccccccccccccccc" />
              </g>
            </g>
          </g>
        </g>
      </g>
    </g>
  </g>
</svg>
