<?xml version="1.0" encoding="UTF-8" standalone="no"?>
<!-- Created with Inkscape (http://www.inkscape.org/) -->

<svg
   xmlns:dc="http://purl.org/dc/elements/1.1/"
   xmlns:cc="http://creativecommons.org/ns#"
   xmlns:rdf="http://www.w3.org/1999/02/22-rdf-syntax-ns#"
   xmlns:svg="http://www.w3.org/2000/svg"
   xmlns="http://www.w3.org/2000/svg"
   xmlns:sodipodi="http://sodipodi.sourceforge.net/DTD/sodipodi-0.dtd"
   xmlns:inkscape="http://www.inkscape.org/namespaces/inkscape"
   width="2in"
   height="2in"
   viewBox="0 0 50.800001 50.800001"
   version="1.1"
   id="svg3701"
   inkscape:version="0.92.3 (2405546, 2018-03-11)"
   sodipodi:docname="Whorthless Symbol.svg">
  <defs
     id="defs3695">
    <marker
       inkscape:stockid="Arrow1Lstart"
       orient="auto"
       refY="0"
       refX="0"
       id="Arrow1Lstart"
       style="overflow:visible"
       inkscape:isstock="true">
      <path
         id="path5856"
         d="M 0,0 5,-5 -12.5,0 5,5 Z"
         style="fill:#ffffff;fill-opacity:1;fill-rule:evenodd;stroke:none;stroke-width:1.00000003pt;stroke-opacity:1"
         transform="matrix(0.8,0,0,0.8,10,0)"
         inkscape:connector-curvature="0" />
    </marker>
  </defs>
  <sodipodi:namedview
     id="base"
     pagecolor="#ffffff"
     bordercolor="#666666"
     borderopacity="1.0"
     inkscape:pageopacity="0.0"
     inkscape:pageshadow="2"
     inkscape:zoom="0.5"
     inkscape:cx="63.159327"
     inkscape:cy="160"
     inkscape:document-units="in"
     inkscape:current-layer="layer1"
     showgrid="false"
     inkscape:snap-page="true"
     units="in"
     inkscape:window-width="777"
     inkscape:window-height="420"
     inkscape:window-x="701"
     inkscape:window-y="354"
     inkscape:window-maximized="0" />
  <metadata
     id="metadata3698">
    <rdf:RDF>
      <cc:Work
         rdf:about="">
        <dc:format>image/svg+xml</dc:format>
        <dc:type
           rdf:resource="http://purl.org/dc/dcmitype/StillImage" />
        <dc:title></dc:title>
      </cc:Work>
    </rdf:RDF>
  </metadata>
  <g
     inkscape:label="Layer 1"
     inkscape:groupmode="layer"
     id="layer1"
     transform="translate(0,-246.19998)">
    <g
       id="g7670"
       transform="matrix(0.09921875,0,0,0.09921875,0,246.19998)">
      <path
         style="fill:#000000;fill-opacity:1"
         inkscape:connector-curvature="0"
         d="M 0,0 H 512 V 512 H 0 Z"
         id="path7653" />
      <g
         class=""
         id="g7657">
        <path
           style="fill:#ffffff;fill-opacity:1"
           inkscape:connector-curvature="0"
           d="m 45.906,23.625 v 9.344 c 0,102.68 10.49,205.087 41.125,288.155 30.637,83.068 82.364,147.415 163.75,169.78 l 2.22,0.626 2.22,-0.5 C 344.49,472 396.864,407.39 425.593,323.47 c 28.728,-83.92 35.25,-187.777 35.25,-290.5 V 23.625 Z M 64.72,42.313 h 377.34 c -0.413,98.8 -7.497,197.342 -34.125,275.125 -27.21,79.487 -73.39,136.637 -154.375,154.78 -73.28,-21.03 -119.914,-78.696 -149,-157.562 C 76.085,237.444 65.354,140.526 64.717,42.312 Z m 18.81,18.75 c 0.807,84.13 12.486,172.823 39.314,244.812 7.825,20.998 16.874,40.495 27.25,58.063 l 45.844,-38.438 -40.75,-75.063 -5.47,-10.062 10.97,-3.344 c 0,0 38.865,-11.786 60.406,-18.25 l 20.437,-7.25 -94.843,-150.468 z m 160.25,0 45.782,91.5 132.407,-43.157 c 0.69,-16.205 1.053,-32.366 1.155,-48.344 H 243.78 Z m 177.157,68.343 -122.906,40.064 24.908,49.78 25.875,48.72 53.28,-1.845 c 10.245,-42.834 16.03,-89.664 18.844,-136.72 z m -110.029,107.064 -30.75,10.374 67.25,145.187 c 17.813,-23.2 31.737,-51.6 42.624,-83.686 2.578,-7.595 4.966,-15.39 7.19,-23.344 l -53.626,1.844 -5.844,0.22 -2.75,-5.158 z m -99.22,4.686 c -13.133,3.972 -27.346,8.262 -34.625,10.47 L 216,323.28 l 3.625,6.72 -5.844,4.906 -53.56,44.906 c 24.67,35.91 55.887,61.828 94.655,73.125 30.34,-6.91 55.36,-21.496 76.03,-42.062 L 211.69,241.155 Z"
           id="path7655" />
      </g>
    </g>
  </g>
</svg>
