<?xml version="1.0" encoding="UTF-8" standalone="no"?>
<!-- Created with Inkscape (http://www.inkscape.org/) -->

<svg
   xmlns:dc="http://purl.org/dc/elements/1.1/"
   xmlns:cc="http://creativecommons.org/ns#"
   xmlns:rdf="http://www.w3.org/1999/02/22-rdf-syntax-ns#"
   xmlns:svg="http://www.w3.org/2000/svg"
   xmlns="http://www.w3.org/2000/svg"
   xmlns:sodipodi="http://sodipodi.sourceforge.net/DTD/sodipodi-0.dtd"
   xmlns:inkscape="http://www.inkscape.org/namespaces/inkscape"
   width="1.5in"
   height="2in"
   viewBox="0 0 1.5 2"
   version="1.1"
   id="svg2014"
   inkscape:version="0.92.3 (2405546, 2018-03-11)"
   sodipodi:docname="Simple Dune - Treachery Cards - Hajr.svg">
  <defs
     id="defs2008">
    <marker
       inkscape:stockid="Arrow1Lstart"
       orient="auto"
       refY="0"
       refX="0"
       id="Arrow1Lstart"
       style="overflow:visible"
       inkscape:isstock="true">
      <path
         id="path5856"
         d="M 0,0 5,-5 -12.5,0 5,5 Z"
         style="fill:#ffffff;fill-opacity:1;fill-rule:evenodd;stroke:none;stroke-width:1.00000003pt;stroke-opacity:1"
         transform="matrix(0.8,0,0,0.8,10,0)"
         inkscape:connector-curvature="0" />
    </marker>
  </defs>
  <sodipodi:namedview
     id="base"
     pagecolor="#ffffff"
     bordercolor="#666666"
     borderopacity="1.0"
     inkscape:pageopacity="0.0"
     inkscape:pageshadow="2"
     inkscape:zoom="1"
     inkscape:cx="4.60576"
     inkscape:cy="81.46667"
     inkscape:document-units="in"
     inkscape:current-layer="layer1"
     showgrid="true"
     showguides="false"
     inkscape:window-width="1920"
     inkscape:window-height="1029"
     inkscape:window-x="0"
     inkscape:window-y="0"
     inkscape:window-maximized="1"
     inkscape:snap-page="true"
     units="in"
     inkscape:snap-bbox="true"
     inkscape:snap-smooth-nodes="false"
     inkscape:object-nodes="false"
     inkscape:snap-nodes="true"
     inkscape:snap-grids="true"
     inkscape:snap-bbox-edge-midpoints="false"
     inkscape:bbox-nodes="true"
     inkscape:snap-global="true"
     inkscape:snap-object-midpoints="false"
     inkscape:bbox-paths="true"
     inkscape:snap-text-baseline="false"
     inkscape:snap-bbox-midpoints="false">
    <inkscape:grid
       type="xygrid"
       id="grid6312"
       spacingx="0.25"
       spacingy="0.25"
       units="in"
       empspacing="1" />
  </sodipodi:namedview>
  <metadata
     id="metadata2011">
    <rdf:RDF>
      <cc:Work
         rdf:about="">
        <dc:format>image/svg+xml</dc:format>
        <dc:type
           rdf:resource="http://purl.org/dc/dcmitype/StillImage" />
        <dc:title />
      </cc:Work>
    </rdf:RDF>
  </metadata>
  <g
     inkscape:label="Layer 1"
     inkscape:groupmode="layer"
     id="layer1"
     transform="translate(0,-26.6)">
    <g
       id="g852">
      <rect
         y="26.614258"
         x="0.014258745"
         height="1.9714819"
         width="1.4714826"
         id="rect1057-0"
         style="opacity:1;fill:#ffffff;fill-opacity:1;stroke:#000000;stroke-width:0.02851749;stroke-miterlimit:4;stroke-dasharray:none;stroke-opacity:1" />
      <g
         id="g1303"
         transform="matrix(0.00195313,0,0,0.00195313,0.2499994,26.849996)">
        <path
           id="path1286"
           d="M 0,0 H 512 V 512 H 0 Z"
           inkscape:connector-curvature="0"
           style="fill:#000000;fill-opacity:1" />
        <g
           id="g1290"
           class="">
          <path
             id="path1288"
             d="m 494.25,21.125 -164.53,1.25 c -15.463,27.984 -33.913,52.67 -54.163,75.8 6.012,1.497 12.073,2.995 18.027,4.497 l 13.69,3.453 -8.528,11.254 c -50.415,66.503 -44.632,142.087 -27.36,213.694 l -18.17,4.383 C 236.378,265.639 229.688,187.264 275.856,117.516 187.786,95.619 92.236,74.082 22.482,28.136 c -1.77,4.89 -1.01,10.187 2.262,17.23 2.427,5.222 6.516,11.043 12.14,17.117 53.162,37.938 130.458,65.946 189.778,75.168 l -2.87,18.467 C 161.942,146.502 84.15,118.721 27.756,78.891 c 0.61,5.953 2.61,12.393 6.387,19.36 6.918,12.758 19.275,26.49 35.7,38.907 0.84,0.635 1.697,1.265 2.557,1.893 42.555,22.677 93.696,38.914 140.737,42.164 l -1.287,18.644 c -61.147,-4.222 -126.33,-28.22 -175.672,-60.745 1.03,4.922 3.253,10.397 6.885,16.38 7.367,12.14 20.078,25.484 36.23,37.675 39.264,17.838 81.604,32.938 128.62,36.473 l -1.4,18.636 C 150.41,244.06 101.38,224.536 57.41,203.57 c 3.7,19.623 17.285,34.4 38.926,46.805 26.818,15.373 65.26,25.424 105.822,31.328 l 7.457,1.086 0.52,7.517 c 1.074,15.51 4.568,22.832 9.742,31.672 l -16.13,9.438 c -4.93,-8.426 -9.286,-18.45 -11.292,-32.436 -32.304,-5.087 -63.402,-12.616 -89.365,-24.265 -6.44,7.75 -12.784,15.74 -18.994,24.033 16.515,23.758 30.6,43.036 52.78,65.78 l 27.095,-9.467 9.343,-3.25 2.718,9.53 c 15.066,53.052 59.564,93.564 113.595,113.813 48.005,17.99 103.003,19.633 150.063,0.594 C 371.017,438.17 325.073,352.04 303.908,275.873 l -1.125,-4.156 2.376,-3.564 C 348.53,203.283 425.85,148.88 494.25,123.97 V 21.124 Z"
             inkscape:connector-curvature="0"
             style="fill:#ffffff;fill-opacity:1" />
        </g>
      </g>
      <text
         transform="scale(0.94629447,1.0567535)"
         id="text1027-9"
         y="26.827446"
         x="0.79256457"
         style="font-style:normal;font-variant:normal;font-weight:normal;font-stretch:normal;font-size:0.23657364px;line-height:0.89999998;font-family:'Arial Black';-inkscape-font-specification:'Arial Black, ';text-align:center;letter-spacing:0px;word-spacing:0px;text-anchor:middle;fill:#000000;fill-opacity:1;stroke:none;stroke-width:0.00985724"
         xml:space="preserve"><tspan
           id="tspan1029-7"
           style="font-style:normal;font-variant:normal;font-weight:normal;font-stretch:normal;font-size:0.23657364px;line-height:0.89999998;font-family:'Arial Black';-inkscape-font-specification:'Arial Black, ';text-align:center;text-anchor:middle;stroke-width:0.00985724"
           y="26.827446"
           x="0.79256457"
           sodipodi:role="line">Hajr</tspan></text>
    </g>
  </g>
</svg>
