<?xml version="1.0" encoding="UTF-8" standalone="no"?>
<!-- Created with Inkscape (http://www.inkscape.org/) -->

<svg
   xmlns:dc="http://purl.org/dc/elements/1.1/"
   xmlns:cc="http://creativecommons.org/ns#"
   xmlns:rdf="http://www.w3.org/1999/02/22-rdf-syntax-ns#"
   xmlns:svg="http://www.w3.org/2000/svg"
   xmlns="http://www.w3.org/2000/svg"
   xmlns:sodipodi="http://sodipodi.sourceforge.net/DTD/sodipodi-0.dtd"
   xmlns:inkscape="http://www.inkscape.org/namespaces/inkscape"
   width="1.5in"
   height="2in"
   viewBox="0 0 1.5 2"
   version="1.1"
   id="svg2014"
   inkscape:version="0.92.3 (2405546, 2018-03-11)"
   sodipodi:docname="Simple Dune - Treachery Cards - Worthless (LLL).svg">
  <defs
     id="defs2008">
    <marker
       inkscape:stockid="Arrow1Lstart"
       orient="auto"
       refY="0"
       refX="0"
       id="Arrow1Lstart"
       style="overflow:visible"
       inkscape:isstock="true">
      <path
         id="path5856"
         d="M 0,0 5,-5 -12.5,0 5,5 Z"
         style="fill:#ffffff;fill-opacity:1;fill-rule:evenodd;stroke:none;stroke-width:1.00000003pt;stroke-opacity:1"
         transform="matrix(0.8,0,0,0.8,10,0)"
         inkscape:connector-curvature="0" />
    </marker>
  </defs>
  <sodipodi:namedview
     id="base"
     pagecolor="#ffffff"
     bordercolor="#666666"
     borderopacity="1.0"
     inkscape:pageopacity="0.0"
     inkscape:pageshadow="2"
     inkscape:zoom="2"
     inkscape:cx="143.75681"
     inkscape:cy="155.32017"
     inkscape:document-units="in"
     inkscape:current-layer="layer1"
     showgrid="true"
     showguides="false"
     inkscape:window-width="1920"
     inkscape:window-height="1029"
     inkscape:window-x="0"
     inkscape:window-y="0"
     inkscape:window-maximized="1"
     inkscape:snap-page="true"
     units="in"
     inkscape:snap-bbox="true"
     inkscape:snap-smooth-nodes="false"
     inkscape:object-nodes="false"
     inkscape:snap-nodes="true"
     inkscape:snap-grids="true"
     inkscape:snap-bbox-edge-midpoints="false"
     inkscape:bbox-nodes="true"
     inkscape:snap-global="true"
     inkscape:snap-object-midpoints="false"
     inkscape:bbox-paths="true"
     inkscape:snap-text-baseline="false"
     inkscape:snap-bbox-midpoints="false">
    <inkscape:grid
       type="xygrid"
       id="grid6312"
       spacingx="0.25"
       spacingy="0.25"
       units="in"
       empspacing="1" />
  </sodipodi:namedview>
  <metadata
     id="metadata2011">
    <rdf:RDF>
      <cc:Work
         rdf:about="">
        <dc:format>image/svg+xml</dc:format>
        <dc:type
           rdf:resource="http://purl.org/dc/dcmitype/StillImage" />
        <dc:title />
      </cc:Work>
    </rdf:RDF>
  </metadata>
  <g
     inkscape:label="Layer 1"
     inkscape:groupmode="layer"
     id="layer1"
     transform="translate(0,-26.6)">
    <g
       id="g863">
      <rect
         y="26.614258"
         x="0.014258745"
         height="1.9714819"
         width="1.4714826"
         id="rect1057-0"
         style="opacity:1;fill:#ffffff;fill-opacity:1;stroke:#000000;stroke-width:0.02851749;stroke-miterlimit:4;stroke-dasharray:none;stroke-opacity:1" />
      <path
         style="fill:#000000;fill-opacity:1;stroke-width:0.00195313"
         inkscape:connector-curvature="0"
         d="M 0.2499974,26.849998 H 1.25 v 1.000003 H 0.2499974 Z"
         id="path7653-1" />
      <path
         id="path7655-9"
         d="m 0.33965779,26.896141 v 0.01825 c 0,0.200547 0.0204883,0.400561 0.0803225,0.562804 0.059838,0.162243 0.1608676,0.287921 0.31982503,0.331602 l 0.004336,0.0012 0.004336,-9.77e-4 C 0.92283128,27.77185 1.0251245,27.645661 1.081236,27.481754 1.137346,27.317847 1.150084,27.115001 1.150084,26.91437 v -0.01825 z m 0.0367462,0.0365 H 1.113398 C 1.1125914,27.12561 1.098755,27.318075 1.046747,27.469996 0.9936023,27.625244 0.90340678,27.736866 0.74523254,27.772301 0.60210768,27.731227 0.51102541,27.618598 0.45421667,27.464562 0.3986013,27.313757 0.37764226,27.124464 0.37639811,26.932639 Z m 0.0367384,0.03662 c 0.001576,0.164317 0.0243868,0.337546 0.0767854,0.47815 0.0152832,0.04101 0.0329571,0.07909 0.0532228,0.113404 l 0.0895393,-0.07507 -0.0795901,-0.146608 -0.0106836,-0.01965 0.0214258,-0.0065 c 0,0 0.0759084,-0.02302 0.11798077,-0.03564 l 0.0399161,-0.01416 -0.18524071,-0.293884 z m 0.31298908,0 0.0894182,0.178711 0.25860803,-0.08429 c 0.00135,-0.03165 0.00206,-0.06321 0.00226,-0.09442 H 0.72613143 Z m 0.34601063,0.133483 -0.24005137,0.07825 0.0486486,0.09723 0.0505372,0.09516 0.10406277,-0.0036 c 0.02001,-0.08366 0.031309,-0.175126 0.036805,-0.267032 z m -0.21490092,0.20911 -0.0600587,0.02026 0.131348,0.28357 c 0.0347911,-0.04531 0.0619865,-0.100782 0.0832502,-0.16345 0.00504,-0.01483 0.0097,-0.03006 0.014043,-0.04559 l -0.10473856,0.0036 -0.0114141,4.29e-4 -0.005371,-0.01007 z m -0.19378956,0.0092 c -0.0256504,0.0078 -0.0534103,0.01614 -0.0676271,0.02045 l 0.076049,0.13995 0.00708,0.01312 -0.0114141,0.0096 -0.10460964,0.08771 c 0.0481837,0.07014 0.10915458,0.120758 0.18487352,0.142823 0.059258,-0.0135 0.10812528,-0.04198 0.14849648,-0.08215 L 0.66345549,27.321005 Z"
         inkscape:connector-curvature="0"
         style="fill:#ffffff;fill-opacity:1;stroke-width:0.00195313" />
      <text
         transform="scale(0.8988041,1.1125895)"
         id="text1027-1-4-17-6-3-7"
         y="25.478521"
         x="0.83820385"
         style="font-style:normal;font-variant:normal;font-weight:normal;font-stretch:normal;font-size:0.22470105px;line-height:0.89999998;font-family:'Arial Black';-inkscape-font-specification:'Arial Black, ';text-align:center;letter-spacing:0px;word-spacing:0px;text-anchor:middle;fill:#000000;fill-opacity:1;stroke:none;stroke-width:0.00936255"
         xml:space="preserve"><tspan
           id="tspan1207-7-4-4-6-8"
           style="font-style:normal;font-variant:normal;font-weight:normal;font-stretch:normal;font-size:0.21106987px;line-height:0.89999998;font-family:'Arial Black';-inkscape-font-specification:'Arial Black, ';text-align:center;letter-spacing:-0.00445228px;text-anchor:middle;stroke-width:0.00936255"
           y="25.478521"
           x="0.83597749"
           sodipodi:role="line">Worthless</tspan><tspan
           id="tspan1477-8-7-2"
           style="font-style:normal;font-variant:normal;font-weight:normal;font-stretch:normal;font-size:0.21106987px;line-height:0.89999998;font-family:'Arial Black';-inkscape-font-specification:'Arial Black, ';text-align:center;letter-spacing:-0.00445228px;text-anchor:middle;stroke-width:0.00936255"
           y="25.680752"
           x="0.83820385"
           sodipodi:role="line" /></text>
      <text
         transform="scale(0.97419532,1.0264882)"
         id="text5157-5"
         y="27.372988"
         x="0.72972655"
         style="font-style:normal;font-variant:normal;font-weight:normal;font-stretch:normal;font-size:0.1623659px;line-height:1.25;font-family:Arial;-inkscape-font-specification:Arial;text-align:center;letter-spacing:0px;word-spacing:0px;text-anchor:middle;fill:#000000;fill-opacity:1;stroke:none;stroke-width:0.01014787"
         xml:space="preserve"><tspan
           style="font-style:normal;font-variant:normal;font-weight:normal;font-stretch:normal;font-size:0.1623659px;font-family:Arial;-inkscape-font-specification:Arial;letter-spacing:-0.00355177px;stroke-width:0.01014787"
           y="27.372988"
           x="0.72795081"
           id="tspan5155-3"
           sodipodi:role="line">La La La</tspan></text>
    </g>
  </g>
</svg>
